<svg xmlns="http://www.w3.org/2000/svg" fill="none" width="262" height="50" viewBox="0 0 265 50" class="logo">
  <path fill="#fff" d="M4 49.1v-8.3h13V8.4h-.5L6.7 21.2 0 16 11.6.8h15.9v40h10.2V49H4.1Zm54.2.8c-6.3 0-11-2.2-14-6.6A32 32 0 0 1 39.5 25c0-8 1.5-14 4.5-18.4 3-4.3 7.8-6.5 14-6.5 6.4 0 11 2.2 14.1 6.6A32 32 0 0 1 76.8 25c0 8-1.5 14-4.6 18.5-3 4.3-7.7 6.4-14 6.4Zm0-8.7c2.7 0 4.6-1 5.7-3 1-2 1.6-5 1.6-8.6v-9.2a19 19 0 0 0-1.6-8.6c-1-2-3-3-5.7-3-2.8 0-4.7 1-5.7 3a19 19 0 0 0-1.6 8.6v9.2c0 3.7.5 6.5 1.6 8.6 1 2 3 3 5.7 3ZM188 .8h55.2c3.3 0 6.1.5 8.7 1.5 2.7 1 4.9 2.5 6.8 4.6a21 21 0 0 1 4.3 7.5c1 3 1.5 6.5 1.5 10.6 0 4-.5 7.5-1.5 10.5s-2.5 5.6-4.3 7.6c-2 2-4.1 3.5-6.8 4.5-2.6 1-5.5 1.5-8.7 1.5h-55.2V.8Zm55.2 39c3.2 0 5.6-.9 7.5-2.6 1.8-1.8 2.6-4.6 2.6-8.5v-7.5c0-3.8-.8-6.7-2.6-8.4a10.2 10.2 0 0 0-7.5-2.6h-44.7v29.6h44.7ZM131.4 22.2 85.5.2v4.6L127.3 25v.2L85.5 45.2V50l46-22v-5.7Zm48-17.4V.1l-45.9 22V28l46 22.1v-4.7l-41.9-20.1V25l41.9-20.2Z"/>
</svg>