<svg xmlns="http://www.w3.org/2000/svg" fill="none" viewBox="0 0 262 50" width="262" height="50" aria-hidden="true" class="logo">
  <path fill="#fff" d="M4 48.2V40h12.8V8.2h-.6L6.5 20.8l-6.5-5L11.4.7H27V40h10v8.2h-33ZM57.3 49c-6.3 0-10.9-2.2-13.9-6.5-3-4.2-4.5-10.3-4.5-18 0-7.7 1.5-13.8 4.5-18C46.4 2.1 51 0 57.3 0 63.5 0 68 2.2 71 6.4c3 4.3 4.5 10.4 4.5 18.1 0 7.7-1.5 13.8-4.5 18-3 4.3-7.6 6.5-13.8 6.5Zm0-8.6c2.7 0 4.6-1 5.6-3s1.6-4.8 1.6-8.4v-9c0-3.6-.5-6.4-1.6-8.4-1-2-3-3-5.6-3-2.8 0-4.6 1-5.7 3-1 2-1.6 4.8-1.6 8.4v9c0 3.6.6 6.4 1.6 8.4s3 3 5.7 3ZM185.2.8h54.4c3.1 0 6 .5 8.6 1.5 2.6 1 4.8 2.5 6.6 4.5 1.8 2 3.2 4.4 4.2 7.4s1.5 6.4 1.5 10.3c0 4-.5 7.4-1.5 10.3-1 3-2.4 5.5-4.2 7.4-1.8 2-4 3.5-6.6 4.5-2.6 1-5.5 1.5-8.6 1.5h-54.4V.8ZM239.6 39c3 0 5.5-.8 7.3-2.6 1.7-1.7 2.6-4.4 2.6-8.2v-7.4c0-3.8-.9-6.5-2.6-8.2a10 10 0 0 0-7.3-2.6h-44v29h44ZM176.7 4.8V0l-46.3 22.1L84.2.2v4.6l41.2 19.6v.3L84.2 44.4V49l46.2-22.1L176.7 49v-4.6l-41.2-19.7v-.3l41.2-19.6Z"/>
</svg>