<svg xmlns="http://www.w3.org/2000/svg" fill="none" viewBox="0 0 800 562">
  <g stroke="#ff209e" stroke-linecap="round" stroke-width="2">
    <path d="M0 1h80M241 1h80M481 1h80M1 81h720M0 161h801M0 241h800M0 321h800M0 401h800M81 481h639M241 561h80M481 561h80M1 1v80M1 161v240M81 1v479M161 81v399M241 81v479M321 2v559M401 81v399M481 2v559M561 2v559M641 82v399M721 81v480M1 321l240 240M1 401l80 80M1 241l320 320M1 161l320 320M1 81l480 480M1 1l480 480M81 1l480 480M241 81l480 480M241 1l480 480M321 1l400 400M481 81l320 320M481 1l320 320M561 1l240 240M721 81l80 80"/>
  </g>
</svg>