<svg xmlns="http://www.w3.org/2000/svg" fill="none" viewBox="0 0 264 412">
  <g id="disco">
    <g id="ball">
      <path id="base" fill="#00FFAF" d="M254.3 277.2a122.3 122.3 0 1 1-244.6 0 122.3 122.3 0 0 1 244.6 0Z"/>
      <g id="mirrors">
        <path class="mirror" fill="#37FFCF" d="M93 315.5 47 303l14 46 45.5 13.5-13.5-47Z"/>
        <path class="mirror" fill="#37FFCF" d="m204.5 207.5-48-15.5 13.5 46.5 49 14.5-14.5-45.5Z"/>
        <path class="mirror" fill="#AFFFE6" d="m170 240-79.5-1.5v76h81L170 240Z"/>
        <path class="mirror" fill="#AFFFE6" d="M61 204.5 23 231l23-41.5L86 167l-25 37.5Z"/>
        <path class="mirror" fill="#AFFFE6" d="M152.5 188.5h-43l23-35.5 20 35.5Z"/>
        <path class="mirror" fill="#AFFFE6" d="M244 239.5 212.5 213l9.5 42 31.5 14.5-9.5-30Z"/>
        <path class="mirror" fill="#AFFFE6" d="m44 301-34-14.5 8 31L52.5 340 44 301Z"/>
        <path class="mirror" fill="#AFFFE6" d="M197.5 354 155 365l-14 36.5 42.5-24.5 14-23Z"/>
        <path class="mirror" fill="#DEFFF9" d="m108 190-50 16.5L45.5 253 94 237.5l14-47.5Z"/>
        <path class="mirror" fill="#DEFFF9" d="m210 340.5 8.5-38.5 35.5-15.5-14.5 34.5-29.5 19.5Z"/>
      </g>
      <g id="grid" fill="#0C0C0C">
        <path d="M13.4 263.3c20-41.2 65.7-70.1 118.6-70.1 53 0 98.6 28.9 118.6 70.1l8 5.5 1.8-9.6c-21.7-45-71-76.6-128.4-76.6-57.3 0-106.7 31.6-128.4 76.6.5 3.2 1 6.4 1.8 9.6l8-5.5Z"/>
        <path d="m252.4 277.2 3-2.2c-1.3-4-3-7.9-4.8-11.7A221.3 221.3 0 0 0 132 230.8c-45.5 0-87 12.3-118.6 32.5-1.8 3.8-3.5 7.7-4.9 11.7l3 2.2c30.5-22 73.3-35.8 120.5-35.8s90 13.8 120.4 35.8ZM250.6 291.1c-20 41.3-65.7 70.2-118.6 70.2-53 0-98.5-28.9-118.6-70.2a182 182 0 0 1-8-5.4c-.7 3.2-1.3 6.3-1.8 9.6 21.7 45 71 76.6 128.4 76.6 57.4 0 106.7-31.6 128.4-76.6-.5-3.3-1-6.4-1.8-9.6-2.6 1.9-5.3 3.7-8 5.4Z"/>
        <path d="M252.4 277.2C222 299.2 179.2 313 132 313s-90-13.7-120.4-35.8l-3 2.3c1.3 4 3 7.8 4.8 11.6 31.5 20.2 73 32.5 118.6 32.5 45.5 0 87-12.3 118.6-32.5 1.8-3.8 3.5-7.6 4.9-11.6l-3-2.3Z"/>
        <path d="M118.1 395.8C77 375.8 48 330.2 48 277.2s28.9-98.5 70.1-118.6l5.4-8c-3.1-.7-6.3-1.3-9.5-1.7-45 21.6-76.6 71-76.6 128.3 0 57.4 31.5 106.8 76.6 128.4 3.2-.5 6.4-1 9.5-1.8-1.8-2.6-3.7-5.2-5.4-8Z"/>
        <path d="m132 156.8-2.2-3c-4 1.4-8 3-11.7 4.8a221.3 221.3 0 0 0-32.5 118.6c0 45.5 12.3 87.1 32.5 118.6 3.8 1.9 7.7 3.5 11.7 4.9l2.2-3c-22-30.5-35.8-73.2-35.8-120.5 0-47.2 13.8-90 35.8-120.4ZM146 158.6c41.2 20 70 65.7 70 118.6 0 53-28.8 98.6-70 118.6-1.8 2.8-3.6 5.4-5.5 8 3.1.8 6.3 1.3 9.5 1.8 45-21.6 76.7-71 76.7-128.4C226.7 220 195 170.5 150 149c-3.2.4-6.4 1-9.5 1.7 1.9 2.6 3.7 5.3 5.4 8Z"/>
        <path d="M132 156.8c22 30.5 35.8 73.2 35.8 120.4 0 47.3-13.8 90-35.8 120.5l2.2 3c4-1.4 8-3 11.7-4.9 20.2-31.5 32.5-73 32.5-118.6 0-45.5-12.3-87-32.5-118.6-3.8-1.8-7.7-3.4-11.7-4.8l-2.2 3Z"/>
      </g>
      <path id="border" stroke="#0C0C0C" stroke-miterlimit="10" stroke-width="13" d="M256 278.2a123.5 123.5 0 1 1-247 0 123.5 123.5 0 0 1 247 0Z"/>
    </g>
    <g id="hanger" stroke="#0C0C0C" stroke-miterlimit="10" stroke-width="8">
      <path d="M111 153c0-11 9.4-20 21-20s21 9 21 20"/>
      <path stroke-linecap="square" d="M132 139V4"/>
    </g>
  </g>
</svg>